<svg width="933" height="603" viewBox="0 0 933 603" fill="none" xmlns="http://www.w3.org/2000/svg">
<path d="M151.29 122.083H187.869L210.953 216.339H212.597L266.781 122.083H303.36L280.07 262.371H251.3L266.507 171.06H265.274L214.036 261.686H194.376L173.278 170.718H172.114L156.77 262.371H128L151.29 122.083Z" fill="black"/>
<path d="M325.973 264.357C319.305 264.357 313.528 263.193 308.642 260.864C303.801 258.489 300.239 254.973 297.956 250.315C295.673 245.657 295.102 239.88 296.243 232.984C297.248 227.139 299.143 222.253 301.929 218.325C304.76 214.352 308.208 211.156 312.273 208.735C316.337 206.315 320.835 204.466 325.767 203.187C330.745 201.908 335.882 201.041 341.18 200.584C347.299 199.945 352.276 199.328 356.112 198.734C359.994 198.141 362.894 197.296 364.812 196.2C366.73 195.058 367.894 193.369 368.305 191.131V190.72C368.99 186.427 368.191 183.094 365.908 180.719C363.67 178.299 360.085 177.088 355.153 177.088C349.947 177.088 345.518 178.23 341.865 180.513C338.257 182.797 335.677 185.697 334.124 189.213L307.546 187.021C309.921 180.628 313.506 175.102 318.301 170.444C323.141 165.74 328.964 162.133 335.768 159.621C342.572 157.064 350.199 155.785 358.647 155.785C364.492 155.785 369.949 156.47 375.018 157.84C380.133 159.21 384.54 161.333 388.239 164.21C391.984 167.087 394.678 170.786 396.322 175.307C398.012 179.783 398.354 185.149 397.349 191.405L385.499 262.371H357.825L360.291 247.78H359.469C357.231 251.068 354.491 253.968 351.249 256.48C348.007 258.946 344.285 260.887 340.083 262.302C335.882 263.672 331.179 264.357 325.973 264.357ZM337.686 244.218C341.933 244.218 345.837 243.374 349.399 241.684C353.007 239.949 355.976 237.62 358.305 234.697C360.679 231.774 362.186 228.463 362.826 224.764L364.606 213.599C363.693 214.193 362.369 214.718 360.633 215.174C358.944 215.631 357.094 216.065 355.085 216.476C353.121 216.841 351.135 217.184 349.125 217.503C347.116 217.777 345.312 218.051 343.714 218.325C340.198 218.828 337.047 219.627 334.261 220.723C331.475 221.819 329.215 223.303 327.479 225.175C325.744 227.002 324.671 229.285 324.26 232.025C323.621 235.998 324.557 239.035 327.068 241.136C329.626 243.191 333.165 244.218 337.686 244.218Z" fill="black"/>
<path d="M400.422 262.371L417.958 157.155H447.139L429.603 262.371H400.422ZM435.563 143.455C431.225 143.455 427.64 142.016 424.808 139.14C422.023 136.217 420.881 132.746 421.383 128.727C421.886 124.618 423.849 121.147 427.274 118.316C430.699 115.439 434.581 114 438.919 114C443.258 114 446.797 115.439 449.537 118.316C452.277 121.147 453.419 124.618 452.962 128.727C452.505 132.746 450.564 136.217 447.139 139.14C443.76 142.016 439.901 143.455 435.563 143.455Z" fill="black"/>
<path d="M483.897 264.083C475.86 264.083 468.941 262.028 463.142 257.918C457.388 253.763 453.278 247.666 450.812 239.629C448.391 231.546 448.163 221.636 450.127 209.9C452.136 197.844 455.744 187.82 460.95 179.828C466.156 171.791 472.321 165.786 479.445 161.813C486.569 157.794 493.989 155.785 501.707 155.785C507.552 155.785 512.279 156.79 515.887 158.799C519.54 160.763 522.348 163.229 524.312 166.197C526.276 169.12 527.646 171.997 528.422 174.828H529.313L538.149 122.083H567.262L543.972 262.371H515.202L518.01 245.52H516.777C514.95 248.443 512.53 251.342 509.516 254.219C506.548 257.051 502.94 259.403 498.693 261.275C494.492 263.147 489.56 264.083 483.897 264.083ZM496.775 240.862C501.433 240.862 505.634 239.583 509.379 237.026C513.124 234.423 516.275 230.792 518.832 226.134C521.389 221.476 523.17 216.019 524.175 209.763C525.225 203.507 525.248 198.072 524.244 193.46C523.239 188.848 521.275 185.286 518.353 182.774C515.476 180.262 511.662 179.006 506.913 179.006C502.118 179.006 497.871 180.308 494.172 182.911C490.519 185.514 487.482 189.122 485.062 193.734C482.687 198.346 480.997 203.689 479.993 209.763C478.988 215.882 478.919 221.294 479.787 225.997C480.655 230.655 482.504 234.309 485.336 236.957C488.167 239.56 491.98 240.862 496.775 240.862Z" fill="black"/>
<path d="M660.121 187.158L633.611 188.802C633.474 186.473 632.835 184.395 631.693 182.568C630.597 180.696 628.976 179.212 626.83 178.116C624.729 177.02 622.081 176.472 618.884 176.472C614.089 176.472 609.819 177.568 606.074 179.76C602.33 181.952 600.206 184.76 599.704 188.185C599.293 190.377 599.864 192.227 601.416 193.734C602.969 195.241 606.097 196.52 610.801 197.57L629.296 201.406C639.16 203.507 646.284 207 650.668 211.886C655.098 216.773 656.673 223.166 655.394 231.066C654.253 237.779 651.307 243.648 646.558 248.671C641.809 253.649 635.781 257.53 628.474 260.316C621.167 263.056 613.061 264.426 604.156 264.426C589.863 264.426 578.994 261.503 571.55 255.658C564.107 249.813 560.522 241.889 560.796 231.888L589.292 230.381C589.52 234.674 591.027 237.916 593.813 240.108C596.599 242.255 600.412 243.351 605.252 243.396C610.687 243.488 615.299 242.369 619.089 240.04C622.925 237.665 625.095 234.788 625.597 231.409C625.962 229.034 625.277 227.116 623.542 225.655C621.852 224.194 618.747 222.983 614.226 222.024L596.69 218.394C586.735 216.339 579.588 212.663 575.249 207.365C570.911 202.068 569.427 195.332 570.797 187.158C571.893 180.628 574.61 175.033 578.948 170.375C583.332 165.672 588.972 162.064 595.868 159.553C602.809 157.041 610.641 155.785 619.363 155.785C633.018 155.785 643.293 158.594 650.188 164.21C657.13 169.827 660.441 177.477 660.121 187.158Z" fill="black"/>
<path d="M244.142 279.083L264.418 326.896H265.514L301.956 279.083H336.411L282.091 349.227L314.08 419.371H280.584L259.76 371.49H258.664L221.948 419.371H187.355L243.046 349.227L211.467 279.083H244.142Z" fill="black"/>
<path d="M800.469 389.332C788.967 386.412 750.666 372.706 739.503 369.871C748.729 375.156 788.614 398.039 797.734 403.04C795.724 418.075 794.93 419.841 790.575 434.371C776.743 418.623 747.17 405.513 728.075 396.871C746.119 409.485 773.209 431.369 785.761 449.456C780.058 461.599 773.547 473.346 766.27 484.618C755.368 439.636 716.269 405.717 674.46 394.52C674.658 384.722 674.603 374.921 674.294 365.127C674.194 362.443 674.636 359.766 675.594 357.257C676.552 354.748 678.006 352.458 679.869 350.523C700.134 326.918 725.694 320.102 755.436 326.252C767.88 328.825 786.757 332.489 797.734 338.856C800.652 355.512 801.57 372.458 800.469 389.332Z" fill="#008B80"/>
<path d="M673.107 398.821C671.204 398.223 669.911 396.438 669.951 394.428C670.148 384.709 670.094 374.985 669.787 365.268C669.669 361.987 670.211 358.717 671.382 355.649C672.535 352.628 674.277 349.866 676.503 347.522C687.116 335.181 699.256 327.075 712.774 322.92C726.289 318.765 740.904 318.643 756.349 321.837L756.349 321.838C762.521 323.114 770.497 324.7 778.294 326.773C786.034 328.832 793.972 331.461 799.996 334.955C801.148 335.623 801.945 336.767 802.175 338.078C805.155 355.088 806.093 372.393 804.968 389.626C804.881 390.963 804.203 392.191 803.12 392.979C802.036 393.767 800.658 394.032 799.36 393.702C795.185 392.643 787.715 390.246 779.386 387.493C788.439 392.653 796.427 397.181 799.902 399.086C801.535 399.982 802.45 401.791 802.203 403.638C800.145 419.029 799.27 421.066 794.894 435.666C794.423 437.236 793.137 438.426 791.536 438.776C789.934 439.125 788.269 438.578 787.187 437.346C781.811 431.226 773.666 425.358 764.413 419.913C774.293 428.785 783.44 438.204 789.465 446.885C790.382 448.206 790.526 449.917 789.842 451.372C784.054 463.699 777.444 475.622 770.058 487.062C769.08 488.577 767.295 489.364 765.517 489.063C763.74 488.762 762.313 487.431 761.888 485.679C751.437 442.557 713.781 409.718 673.294 398.874L673.107 398.821ZM679.027 391.127C717.79 402.653 753.878 433.004 767.769 473.669C772.387 465.956 776.649 458.033 780.544 449.928C767.893 432.948 742.773 412.647 725.492 400.566C723.583 399.232 723.004 396.664 724.156 394.64C725.308 392.617 727.813 391.803 729.934 392.763C739.442 397.066 751.778 402.579 763.47 409.006C772.495 413.966 781.403 419.612 788.423 425.863C790.686 418.286 791.531 414.885 792.848 405.484C780.28 398.455 745.726 378.632 737.262 373.784C735.306 372.663 734.478 370.269 735.324 368.18C736.169 366.09 738.427 364.946 740.612 365.501C746.402 366.971 758.99 371.185 771.288 375.294C780.669 378.428 789.893 381.507 796.258 383.444C796.791 369.504 795.919 355.542 793.654 341.77C788.878 339.332 782.648 337.262 775.977 335.488C768.481 333.495 760.795 331.965 754.523 330.668C740.226 327.711 727.191 327.922 715.424 331.539C703.684 335.148 692.93 342.232 683.29 353.46C683.234 353.525 683.176 353.589 683.117 353.65C681.674 355.148 680.548 356.922 679.807 358.865C679.065 360.808 678.723 362.881 678.8 364.959C678.8 364.968 678.8 364.976 678.8 364.985C679.075 373.696 679.15 382.413 679.027 391.127Z" fill="#008B80"/>
<path d="M641.906 359.381C642.296 357.045 644.271 355.303 646.638 355.208L662.375 354.579C665.213 354.465 667.575 356.735 667.575 359.575V393.371C667.575 396.132 665.336 398.371 662.575 398.371H641.302C638.212 398.371 635.861 395.596 636.37 392.548L641.906 359.381Z" fill="#008B80"/>
<path d="M340.075 309.371L547.575 309.371L543.075 336.371H335.575L340.075 309.371Z" fill="#008B80"/>
<path d="M340.582 361.901L638.575 361.371L634.095 389.371L337.575 389.371L340.582 361.901Z" fill="#008B80"/>
<path d="M332.575 361.871L362.075 361.871L345.576 459.5L315.575 459.371L332.575 361.871Z" fill="#008B80"/>
<path d="M583.308 296.296L585.116 302.441C586.33 306.563 588.557 310.315 591.596 313.353C594.634 316.392 598.387 318.619 602.509 319.833L608.654 321.641C609.882 322.001 609.882 323.742 608.654 324.105L602.506 325.913C598.384 327.127 594.633 329.355 591.595 332.393C588.557 335.431 586.329 339.183 585.116 343.305L583.308 349.45C582.946 350.678 581.204 350.678 580.842 349.45L579.033 343.303C577.82 339.181 575.592 335.43 572.554 332.392C569.516 329.354 565.765 327.127 561.643 325.913L555.498 324.105C554.267 323.745 554.267 322.003 555.498 321.639L561.643 319.83C565.765 318.617 569.517 316.39 572.556 313.352C575.594 310.314 577.822 306.562 579.035 302.441L580.842 296.296C580.919 296.029 581.082 295.795 581.304 295.628C581.526 295.461 581.797 295.371 582.075 295.371C582.353 295.371 582.623 295.461 582.845 295.628C583.068 295.795 583.23 296.029 583.308 296.296Z" fill="#008B80"/>
<path d="M686.382 425.976L687.566 429.998C688.36 432.697 689.818 435.152 691.807 437.141C693.796 439.13 696.252 440.588 698.95 441.382L702.972 442.566C703.776 442.801 703.776 443.941 702.972 444.179L698.948 445.362C696.25 446.157 693.795 447.615 691.806 449.604C689.818 451.592 688.36 454.048 687.566 456.746L686.382 460.768C686.145 461.572 685.005 461.572 684.768 460.768L683.584 456.744C682.79 454.047 681.332 451.591 679.343 449.603C677.355 447.614 674.899 446.156 672.201 445.362L668.179 444.179C667.374 443.943 667.374 442.803 668.179 442.564L672.201 441.381C674.899 440.587 677.355 439.129 679.344 437.14C681.333 435.152 682.791 432.696 683.586 429.998L684.768 425.976C684.819 425.802 684.925 425.648 685.07 425.539C685.216 425.43 685.393 425.371 685.575 425.371C685.757 425.371 685.934 425.43 686.079 425.539C686.225 425.648 686.331 425.802 686.382 425.976Z" fill="#008B80"/>
</svg>
